HIERARCHY
ROOT joint_Root
{
	OFFSET 0.0 0.0 0.0
	CHANNELS 6 Xposition Yposition Zposition Zrotation Xrotation Yrotation 
	JOINT Hips
	{
		OFFSET -17.1583 93.1646 452.98
		CHANNELS 6 Xposition Yposition Zposition Zrotation Xrotation Yrotation 
		JOINT Spine
		{
			OFFSET 15.7357 0.0 0.0
			CHANNELS 6 Xposition Yposition Zposition Zrotation Xrotation Yrotation 
			JOINT Chest
			{
				OFFSET 8.98455 -0.406207 0.0
				CHANNELS 6 Xposition Yposition Zposition Zrotation Xrotation Yrotation 
				JOINT Neck
				{
					OFFSET 16.3773 0.0 0.0
					CHANNELS 6 Xposition Yposition Zposition Zrotation Xrotation Yrotation 
					JOINT Head
					{
						OFFSET 6.45672 0.0 0.0
						CHANNELS 6 Xposition Yposition Zposition Zrotation Xrotation Yrotation 
						End Site
						{
							OFFSET 0.0 0.0 0.0
						}
					}
				}
				JOINT Shoulder_L
				{
					OFFSET 12.9942 -0.242716 4.98039
					CHANNELS 6 Xposition Yposition Zposition Zrotation Xrotation Yrotation 
					JOINT UpperArm_L
					{
						OFFSET 5.34809 0.0 0.0
						CHANNELS 6 Xposition Yposition Zposition Zrotation Xrotation Yrotation 
						JOINT LowerArm_L
						{
							OFFSET 24.3286 1.87007e-05 0.0
							CHANNELS 6 Xposition Yposition Zposition Zrotation Xrotation Yrotation 
							JOINT Hand_L
							{
								OFFSET 22.2916 0.0 0.0
								CHANNELS 6 Xposition Yposition Zposition Zrotation Xrotation Yrotation 
								End Site
								{
									OFFSET 0.0 0.0 0.0
								}
							}
						}
					}
				}
				JOINT Shoulder_R
				{
					OFFSET 12.9945 -0.242716 -4.98039
					CHANNELS 6 Xposition Yposition Zposition Zrotation Xrotation Yrotation 
					JOINT UpperArm_R
					{
						OFFSET -5.34813 0.0 0.0
						CHANNELS 6 Xposition Yposition Zposition Zrotation Xrotation Yrotation 
						JOINT LowerArm_R
						{
							OFFSET -24.3289 0.000322201 0.0
							CHANNELS 6 Xposition Yposition Zposition Zrotation Xrotation Yrotation 
							JOINT Hand_R
							{
								OFFSET -22.2915 -0.000108084 0.0
								CHANNELS 6 Xposition Yposition Zposition Zrotation Xrotation Yrotation 
								End Site
								{
									OFFSET 0.0 0.0 0.0
								}
							}
						}
					}
				}
			}
		}
		JOINT UpperLeg_L
		{
			OFFSET -2.19248 -6.46944 0.0
			CHANNELS 6 Xposition Yposition Zposition Zrotation Xrotation Yrotation 
			JOINT LowerLeg_L
			{
				OFFSET 39.0811 0.0 -1.23785e-05
				CHANNELS 6 Xposition Yposition Zposition Zrotation Xrotation Yrotation 
				JOINT Foot_L
				{
					OFFSET 40.9854 0.0 -1.26872e-05
					CHANNELS 6 Xposition Yposition Zposition Zrotation Xrotation Yrotation 
					JOINT Toes_L
					{
						OFFSET 11.7543 0.0 0.0
						CHANNELS 6 Xposition Yposition Zposition Zrotation Xrotation Yrotation 
						End Site
						{
							OFFSET 0.0 0.0 0.0
						}
					}
				}
			}
		}
		JOINT UpperLeg_R
		{
			OFFSET -2.19251 6.46944 0.0
			CHANNELS 6 Xposition Yposition Zposition Zrotation Xrotation Yrotation 
			JOINT LowerLeg_R
			{
				OFFSET -39.0811 -0.00228153 -0.0401928
				CHANNELS 6 Xposition Yposition Zposition Zrotation Xrotation Yrotation 
				JOINT Foot_R
				{
					OFFSET -40.9854 0.0 0.0
					CHANNELS 6 Xposition Yposition Zposition Zrotation Xrotation Yrotation 
					JOINT Toes_R
					{
						OFFSET -11.7543 0.0 0.0
						CHANNELS 6 Xposition Yposition Zposition Zrotation Xrotation Yrotation 
						End Site
						{
							OFFSET 0.0 0.0 0.0
						}
					}
				}
			}
		}
	}
}
MOTION
Frames:	6
Frame Time:	0.0333333
0.000000 0.000000 0.000000 0.000000 0.000000 -0.000000 -1.681890 91.761600 0.440630 84.077400 1.835500 4.983420 15.735700 0.000005 -0.000001 71.194800 87.221100 -67.735100 8.984550 -0.406207 -0.000000 -2.432860 -2.098600 6.875280 16.377300 -0.000001 -0.000001 11.326600 4.470920 3.284540 6.456720 -0.000001 -0.000000 6.457280 7.710320 4.087470 12.994200 -0.242716 4.980390 -92.509700 7.164500 -70.636500 5.348090 -0.000007 -0.000001 -72.478100 -11.660200 -1.843450 24.328600 0.000019 0.000005 23.983400 -23.906200 -132.331000 22.291600 -0.000001 0.000005 60.697300 4.280960 20.079500 12.994500 -0.242716 -4.980390 87.799000 6.486060 -71.210300 -5.348130 -0.000001 -0.000004 -64.433700 3.709260 -2.233860 -24.328900 0.000322 -0.000009 20.986200 -17.781500 -128.523000 -22.291500 -0.000108 -0.000004 62.139100 5.659040 -15.956000 -2.192480 -6.469440 -0.000000 -172.829000 -0.030227 -3.112400 39.081100 -0.000007 -0.000012 0.428373 -0.770251 29.081600 40.985400 -0.000006 -0.000013 2.478520 8.679350 -77.167800 11.754300 -0.000000 0.000003 0.000033 0.167065 -9.800770 -2.192510 6.469440 -0.000001 -171.353000 6.561950 -175.341000 -39.081100 -0.002282 -0.040193 0.136462 -0.453819 16.350000 -40.985400 0.000008 0.000006 3.814520 -0.415095 -72.240100 -11.754300 -0.000006 -0.000006 -0.011132 0.279575 -5.212600
0.000000 0.000000 0.000000 0.000000 0.000000 -0.000000 -1.683430 91.751300 0.421674 84.034500 1.763070 4.927330 15.735700 0.000005 -0.000001 71.234100 87.246400 -67.794800 8.984550 -0.406207 -0.000000 -2.480480 -2.078380 6.834210 16.377300 -0.000001 -0.000001 11.274900 4.462640 3.369770 6.456720 -0.000001 -0.000000 6.415400 7.695270 4.436090 12.994200 -0.242716 4.980390 -92.510300 7.149600 -70.595600 5.348090 -0.000007 -0.000001 -72.246800 -10.243000 -1.585560 24.328600 0.000019 0.000005 27.444200 -26.997800 -131.157000 22.291600 -0.000001 0.000005 61.949700 4.317180 19.526000 12.994500 -0.242716 -4.980390 87.808800 6.460210 -71.218300 -5.348130 -0.000001 -0.000004 -65.134100 2.157510 -2.756230 -24.328900 0.000322 -0.000009 14.651100 -12.510400 -129.644000 -22.291500 -0.000108 -0.000004 61.092100 5.556490 -8.996180 -2.192480 -6.469440 -0.000000 -172.790000 -0.050721 -3.209070 39.081100 -0.000007 -0.000012 0.429202 -0.769290 29.159100 40.985400 -0.000006 -0.000013 2.483390 8.657210 -77.129600 11.754300 -0.000000 0.000003 0.000350 0.161509 -10.026400 -2.192510 6.469440 -0.000001 -171.316000 6.568770 -175.452000 -39.081100 -0.002282 -0.040193 0.138277 -0.457389 16.438500 -40.985400 0.000008 0.000006 3.827330 -0.330933 -72.251800 -11.754300 -0.000006 -0.000006 -0.011302 0.280786 -5.163020
0.000000 0.000000 0.000000 0.000000 0.000000 -0.000000 -1.668230 91.750600 0.435512 83.983800 1.738400 4.965030 15.735700 0.000005 -0.000001 71.545500 87.251400 -68.106900 8.984550 -0.406207 -0.000000 -2.481390 -2.046800 6.833270 16.377300 -0.000001 -0.000001 11.210600 4.464530 3.396360 6.456720 -0.000001 -0.000000 6.339850 7.653970 4.610260 12.994200 -0.242716 4.980390 -92.556100 7.280830 -70.595200 5.348090 -0.000007 -0.000001 -71.424500 -7.877740 -0.896559 24.328600 0.000019 0.000005 36.875800 -33.692800 -126.483000 22.291600 -0.000001 0.000005 61.883500 4.542320 15.891300 12.994500 -0.242716 -4.980390 87.822800 6.428210 -71.244400 -5.348130 -0.000001 -0.000004 -65.568100 1.055610 -3.092950 -24.328900 0.000322 -0.000009 8.082840 -7.096850 -131.021000 -22.291500 -0.000108 -0.000004 61.384700 5.410170 -3.289620 -2.192480 -6.469440 -0.000000 -172.756000 0.003196 -3.163850 39.081100 -0.000007 -0.000012 0.426784 -0.764195 29.183400 40.985400 -0.000006 -0.000013 2.472500 8.581070 -77.185200 11.754300 -0.000000 0.000003 0.000081 0.166250 -9.833860 -2.192510 6.469440 -0.000001 -171.306000 6.666140 -175.380000 -39.081100 -0.002282 -0.040193 0.136384 -0.452280 16.393600 -40.985400 0.000008 0.000006 3.826150 -0.235082 -72.264100 -11.754300 -0.000006 -0.000006 -0.011287 0.280680 -5.167380
0.000000 0.000000 0.000000 0.000000 0.000000 -0.000000 -1.663790 91.739900 0.436132 83.945000 1.734280 4.875140 15.735700 0.000005 -0.000001 71.630800 87.280600 -68.193200 8.984550 -0.406207 -0.000000 -2.535140 -2.022110 6.830980 16.377300 -0.000001 -0.000001 11.097400 4.442120 3.312710 6.456720 -0.000001 -0.000000 6.246100 7.664960 4.697460 12.994200 -0.242716 4.980390 -92.596700 7.414870 -70.637700 5.348090 -0.000007 -0.000001 -70.179200 -5.405770 -0.146071 24.328600 0.000019 0.000005 46.790900 -39.316800 -120.760000 22.291600 -0.000001 0.000005 62.025000 4.824830 10.845600 12.994500 -0.242716 -4.980390 87.856800 6.320910 -71.226100 -5.348130 -0.000001 -0.000004 -65.842100 1.098770 -3.093800 -24.328900 0.000322 -0.000009 6.510400 -5.713540 -131.100000 -22.291500 -0.000108 -0.000004 63.063600 5.393200 -2.716130 -2.192480 -6.469440 -0.000000 -172.725000 -0.012458 -3.310370 39.081100 -0.000007 -0.000012 0.431509 -0.769907 29.270500 40.985400 -0.000006 -0.000013 2.479090 8.568420 -77.166200 11.754300 -0.000000 0.000003 0.000261 0.163109 -9.961430 -2.192510 6.469440 -0.000001 -171.249000 6.611200 -175.505000 -39.081100 -0.002282 -0.040193 0.137815 -0.455383 16.453600 -40.985400 0.000008 0.000006 3.821510 -0.266014 -72.262500 -11.754300 -0.000006 -0.000006 -0.011241 0.280354 -5.180710
0.000000 0.000000 0.000000 0.000000 0.000000 -0.000000 -1.659240 91.741000 0.445996 83.964800 1.762250 4.840720 15.735700 0.000005 -0.000001 71.992600 87.270200 -68.557100 8.984550 -0.406207 -0.000000 -2.505440 -1.994860 6.827830 16.377300 -0.000001 -0.000001 10.875900 4.413260 3.184060 6.456720 -0.000001 -0.000000 6.218010 7.664410 4.586000 12.994200 -0.242716 4.980390 -92.606100 7.475490 -70.717600 5.348090 -0.000007 -0.000001 -69.247700 -3.995660 0.278815 24.328600 0.000019 0.000005 56.962500 -43.347600 -114.057000 22.291600 -0.000001 0.000005 63.227200 4.992800 7.477720 12.994500 -0.242716 -4.980390 87.832200 6.367700 -71.155400 -5.348130 -0.000001 -0.000004 -65.610000 2.339860 -2.615860 -24.328900 0.000322 -0.000009 12.378300 -10.685600 -130.192000 -22.291500 -0.000108 -0.000004 63.344900 5.500470 -6.563600 -2.192480 -6.469440 -0.000000 -172.742000 -0.009791 -3.334120 39.081100 -0.000007 -0.000012 0.432032 -0.771102 29.262100 40.985400 -0.000006 -0.000013 2.483250 8.594310 -77.246000 11.754300 -0.000000 0.000003 0.000104 0.165861 -9.849670 -2.192510 6.469440 -0.000001 -171.254000 6.537360 -175.527000 -39.081100 -0.002282 -0.040193 0.138326 -0.457195 16.450700 -40.985400 0.000008 0.000006 3.806950 -0.330650 -72.289000 -11.754300 -0.000006 -0.000006 -0.011061 0.279069 -5.233310
0.000000 0.000000 0.000000 0.000000 0.000000 -0.000000 -1.666910 91.738500 0.469252 83.990000 1.826210 4.845460 15.735700 0.000005 -0.000001 70.992000 87.222000 -67.521500 8.984550 -0.406207 -0.000000 -2.440000 -2.117830 6.896500 16.377300 -0.000001 -0.000001 10.845500 4.497790 2.996660 6.456720 -0.000001 -0.000000 6.071550 7.734290 4.302380 12.994200 -0.242716 4.980390 -92.630600 7.526620 -70.671500 5.348090 -0.000007 -0.000001 -69.134200 -4.571930 0.505171 24.328600 0.000019 0.000005 63.401000 -44.620300 -109.378000 22.291600 -0.000001 0.000005 65.165000 5.031520 6.640380 12.994500 -0.242716 -4.980390 87.776200 6.517140 -71.112900 -5.348130 -0.000001 -0.000004 -64.710500 4.567040 -2.170410 -24.328900 0.000322 -0.000009 19.117200 -16.391000 -129.148000 -22.291500 -0.000108 -0.000004 62.975100 5.628420 -13.284500 -2.192480 -6.469440 -0.000000 -172.756000 -0.044239 -3.319390 39.081100 -0.000007 -0.000012 0.435544 -0.777821 29.248000 40.985400 -0.000006 -0.000013 2.508320 8.686160 -77.236500 11.754300 -0.000000 0.000003 0.000057 0.166656 -9.817390 -2.192510 6.469440 -0.000001 -171.273000 6.595680 -175.516000 -39.081100 -0.002282 -0.040193 0.138329 -0.457076 16.455200 -40.985400 0.000008 0.000006 3.806750 -0.368178 -72.298600 -11.754300 -0.000006 -0.000006 -0.011033 0.278870 -5.241480
